<svg width="140" height="140" viewBox="0 0 140 140" xmlns="http://www.w3.org/2000/svg">
  <defs>
    <linearGradient id="bg" x1="0%" y1="100%" x2="100%" y2="0%">
      <stop offset="0%" stop-color="#2563eb"/>
      <stop offset="50%" stop-color="#3b82f6"/>
      <stop offset="100%" stop-color="#06b6d4"/>
    </linearGradient>
    <filter id="glow">
      <feDropShadow dx="0" dy="4" stdDeviation="8" flood-color="#3b82f6" flood-opacity="0.4"/>
    </filter>
    <clipPath id="shape">
      <rect width="140" height="140" rx="38"/>
    </clipPath>
  </defs>
  <rect width="140" height="140" rx="38" fill="url(#bg)" filter="url(#glow)"/>
  <!-- Subtle grid pattern overlay -->
  <g opacity="0.08" stroke="white" stroke-width="0.5" clip-path="url(#shape)">
    <line x1="0" y1="35" x2="140" y2="35"/>
    <line x1="0" y1="70" x2="140" y2="70"/>
    <line x1="0" y1="105" x2="140" y2="105"/>
    <line x1="35" y1="0" x2="35" y2="140"/>
    <line x1="70" y1="0" x2="70" y2="140"/>
    <line x1="105" y1="0" x2="105" y2="140"/>
  </g>
  <!-- Icon: 238x193 * 0.42 = ~100x81, centered: x=(140-100)/2=20, y=(140-81)/2=29.5 -->
  <g transform="translate(20, 29.5) scale(0.42)" fill="white">
    <path d="m171.48 12.02c0-2.77 2.26-5.03 5.03-5.03 2.79 0 5.05 2.26 5.05 5.03 0 2.78-2.26 5.04-5.05 5.04-2.77 0-5.03-2.26-5.03-5.04zm-101.01 154.46l0.26 0.4c-35.33 11.91-60.61 15.29-65 6.19-4.39-9.09 11.28-27.28 39.49-45.9-12.36-22.97-18.92-51.39-23.21-88.6 50.04-26.2 91.8-31.83 137.25-16.49-9.99 2.54-19.94 5.6-29.6 8.93-29.64-4.59-58.19 1.22-90.58 16.7 3.2 23.99 8.32 49.48 19.59 70.98 31.06-18.7 65.06-34.57 99.95-44.5-6.96 31.82-19.53 55.63-49.55 75.33-7.8-5.12-14.4-10.53-20.06-16.27 12.27-9.88 32.95-25.95 49.27-34.44-20.67 7.54-36.66 16.47-55.65 27.34-6.02 3.35-57.67 32.28-52.02 43.98 2.56 5.32 18.56 2.5 39.86-3.65zm145.07-83.87c0.82 1.16 1.31 2.58 1.31 4.12 0 3.96-3.21 7.16-7.17 7.16-1.69 0-3.25-0.59-4.48-1.57-7.04 6.14-13.65 11.09-17.65 13.97l0.29-0.83c4.1-3.15 10.13-8.51 15.84-14.8-0.74-1.13-1.17-2.48-1.17-3.93 0-3.96 3.21-7.17 7.17-7.17q1.34 0.01 2.52 0.46c5.86-8.56 9.44-17.53 6.53-24.54-2.99-7.17-12.44-8.95-23.66-8.23-9.3 71.31-28.69 108.92-86 138.9-19.21-10.05-34.15-20.96-45.89-33.71 4.42-3.03 8.99-5.91 13.59-8.66 9.43 9.71 20.46 17.57 32.3 24.34 16.29-9.3 31.02-20.67 42.19-36.09 16.81-23.22 23.63-53.81 27.55-82.46-39.83 8.15-78.4 24.31-113.98 43.84-3.77-10.93-6.36-22.9-8.42-36.14 18.17-7.62 34.97-11.66 51.72-11.93-12.72 7.47-25.61 15.68-37.49 25.03 17.4-8.99 35.01-16.85 53.18-24.19 29.49-11.24 91.74-32.2 107.85-10.07 10.03 13.78-1.74 31.81-16.13 46.5zm-198.1 42.53c0-4.01 3.25-7.27 7.26-7.27 4.02 0 7.27 3.26 7.27 7.27 0 4.01-3.25 7.27-7.27 7.27-4.01 0-7.26-3.26-7.26-7.27z"/>
  </g>
</svg>
